<svg width="181" height="36" viewBox="0 0 181 36" fill="none" xmlns="http://www.w3.org/2000/svg">
<path d="M161.564 3.90592C162.281 2.36246 164.475 2.36246 165.192 3.90593L167.902 9.74131C168.193 10.3688 168.788 10.8011 169.475 10.8844L175.862 11.6585C177.552 11.8632 178.23 13.9501 176.983 15.1088L172.271 19.4894C171.764 19.9604 171.537 20.66 171.67 21.3389L172.908 27.6527C173.235 29.3227 171.46 30.6125 169.973 29.7851L164.35 26.6571C163.746 26.3207 163.01 26.3207 162.405 26.6571L156.783 29.7851C155.296 30.6125 153.521 29.3227 153.848 27.6527L155.086 21.3389C155.219 20.66 154.991 19.9604 154.485 19.4894L149.772 15.1088C148.526 13.9501 149.204 11.8632 150.893 11.6585L157.281 10.8844C157.967 10.8011 158.562 10.3688 158.854 9.74131L161.564 3.90592Z" fill="#C99D00"/>
<path d="M125.125 3.90592C125.842 2.36246 128.036 2.36246 128.753 3.90593L131.463 9.74131C131.754 10.3688 132.349 10.8011 133.036 10.8844L139.423 11.6585C141.113 11.8632 141.791 13.9501 140.544 15.1088L135.832 19.4894C135.325 19.9604 135.098 20.66 135.231 21.3389L136.469 27.6527C136.796 29.3227 135.021 30.6125 133.534 29.7851L127.911 26.6571C127.307 26.3207 126.571 26.3207 125.967 26.6571L120.344 29.7851C118.857 30.6125 117.082 29.3227 117.409 27.6527L118.647 21.3389C118.78 20.66 118.552 19.9604 118.046 19.4894L113.333 15.1088C112.087 13.9501 112.765 11.8632 114.454 11.6585L120.842 10.8844C121.528 10.8011 122.124 10.3688 122.415 9.74131L125.125 3.90592Z" fill="#C99D00"/>
<path d="M15.8083 3.90592C16.5251 2.36246 18.7194 2.36246 19.4361 3.90593L22.1461 9.74131C22.4375 10.3688 23.0326 10.8011 23.7194 10.8844L30.1066 11.6585C31.7961 11.8632 32.4741 13.9501 31.2277 15.1088L26.5154 19.4894C26.0086 19.9604 25.7813 20.66 25.9144 21.3389L27.1519 27.6527C27.4793 29.3227 25.7041 30.6125 24.2169 29.7851L18.5946 26.6571C17.99 26.3207 17.2545 26.3207 16.6499 26.6571L11.0275 29.7851C9.54036 30.6125 7.76515 29.3227 8.09248 27.6527L9.33001 21.3389C9.46308 20.66 9.2358 19.9604 8.72906 19.4894L4.01671 15.1088C2.77029 13.9501 3.44836 11.8632 5.13779 11.6585L11.525 10.8844C12.2118 10.8011 12.8069 10.3688 13.0983 9.74131L15.8083 3.90592Z" fill="#C99D00"/>
<path d="M52.2472 3.90592C52.964 2.36246 55.1583 2.36246 55.8751 3.90593L58.585 9.74131C58.8765 10.3688 59.4715 10.8011 60.1583 10.8844L66.5455 11.6585C68.235 11.8632 68.913 13.9501 67.6666 15.1088L62.9543 19.4894C62.4475 19.9604 62.2202 20.66 62.3533 21.3389L63.5909 27.6527C63.9182 29.3227 62.143 30.6125 60.6558 29.7851L55.0335 26.6571C54.4289 26.3207 53.6934 26.3207 53.0888 26.6571L47.4664 29.7851C45.9793 30.6125 44.2041 29.3227 44.5314 27.6527L45.7689 21.3389C45.902 20.66 45.6747 19.9604 45.168 19.4894L40.4556 15.1088C39.2092 13.9501 39.8873 11.8632 41.5767 11.6585L47.9639 10.8844C48.6507 10.8011 49.2458 10.3688 49.5372 9.74131L52.2472 3.90592Z" fill="#C99D00"/>
<path d="M88.6861 3.90592C89.4029 2.36246 91.5971 2.36246 92.3139 3.90593L95.0239 9.74131C95.3153 10.3688 95.9104 10.8011 96.5972 10.8844L102.984 11.6585C104.674 11.8632 105.352 13.9501 104.105 15.1088L99.3931 19.4894C98.8864 19.9604 98.6591 20.66 98.7922 21.3389L100.03 27.6527C100.357 29.3227 98.5818 30.6125 97.0947 29.7851L91.4723 26.6571C90.8677 26.3207 90.1322 26.3207 89.5276 26.6571L83.9053 29.7851C82.4181 30.6125 80.6429 29.3227 80.9703 27.6527L82.2078 21.3389C82.3409 20.66 82.1136 19.9604 81.6068 19.4894L76.8945 15.1088C75.6481 13.9501 76.3261 11.8632 78.0156 11.6585L84.4028 10.8844C85.0896 10.8011 85.6847 10.3688 85.9761 9.74131L88.6861 3.90592Z" fill="#C99D00"/>
</svg>
